<svg width="1812" height="1812" viewBox="0 0 1812 1812" fill="none" xmlns="http://www.w3.org/2000/svg">
<path fill-rule="evenodd" clip-rule="evenodd" d="M585.61 0C517.897 0 463.004 55.8439 463.004 124.731V519.334C463.004 588.221 517.897 644.065 585.61 644.065H747.252L746.113 644.348L906.336 807.349H220.022C176.932 807.349 142 842.886 142 886.723L142 1732.63C142 1776.46 176.932 1812 220.022 1812H335.94C379.03 1812 413.962 1776.46 413.962 1732.63L413.962 1592.02H1397.04V1732.63C1397.04 1776.46 1431.97 1812 1475.06 1812H1590.98C1634.07 1812 1669 1776.46 1669 1732.63V886.723C1669 842.886 1634.07 807.349 1590.98 807.349H907.45L1067.67 644.348L1066.53 644.065H1227.62C1295.33 644.065 1350.22 588.221 1350.22 519.334V124.731C1350.22 55.8439 1295.33 0 1227.62 0H585.61ZM1397.04 1084.02V1483.16H413.962V1084.02H1397.04ZM1279.93 241.283C1291.15 235.633 1304.1 244.462 1302.96 257.084C1297 323.364 1258 385.345 1194.76 417.179C1126.7 451.443 1049.27 440.91 993.206 397.698L629.493 580.791C586.862 602.251 535.588 584.751 514.973 541.706C494.358 498.661 512.207 446.365 554.837 424.905L918.858 241.657C920.047 169.87 959.162 100.423 1026.78 66.3822C1089.95 34.5958 1161.54 40.8005 1216.32 76.4148C1226.83 83.2574 1225.9 99.1933 1214.6 104.878L1087.75 168.735L1072.16 261.227L1153.08 305.14L1279.93 241.283ZM561.812 492.474C555.976 509.575 564.844 528.092 581.61 533.814C598.377 539.537 616.715 530.305 622.552 513.204C628.393 496.091 619.52 477.587 602.754 471.864C585.987 466.142 567.653 475.36 561.812 492.474Z" fill="#2AA8EE"/>
</svg>
