<svg width="1812" height="1812" viewBox="0 0 1812 1812" fill="none" xmlns="http://www.w3.org/2000/svg">
<path d="M599.859 354.579C599.859 342.435 609.536 332.59 621.474 332.59H809.826C821.763 332.59 831.44 342.435 831.44 354.579C831.44 366.723 821.763 376.568 809.826 376.568H621.473C609.536 376.568 599.859 366.723 599.859 354.579Z" fill="#2AA8EE"/>
<path fill-rule="evenodd" clip-rule="evenodd" d="M463.004 124.731C463.004 55.8439 517.897 0 585.61 0H1227.62C1295.33 0 1350.22 55.8439 1350.22 124.731V519.334C1350.22 588.221 1295.33 644.065 1227.62 644.065H1066.53L1067.67 644.348L907.45 807.349H1590.98C1634.07 807.349 1669 842.886 1669 886.723V1732.63C1669 1776.46 1634.07 1812 1590.98 1812H1475.06C1431.97 1812 1397.04 1776.46 1397.04 1732.63V1592.02H413.962L413.962 1732.63C413.962 1776.46 379.03 1812 335.94 1812H220.022C176.932 1812 142 1776.46 142 1732.63L142 886.723C142 842.886 176.932 807.349 220.022 807.349H906.336L746.113 644.348L747.252 644.065H585.61C517.897 644.065 463.004 588.221 463.004 519.334V124.731ZM612.361 90.7134C581.582 90.7134 556.631 116.097 556.631 147.409V495.782C556.631 527.095 581.582 552.478 612.361 552.478H1201.82C1232.6 552.478 1257.55 527.095 1257.55 495.782L1257.55 298.036H556.631V194.375H1257.55L1257.55 147.409C1257.55 116.097 1232.6 90.7134 1201.82 90.7134H612.361ZM1397.04 1483.16V1084.03H413.962V1483.16H1397.04Z" fill="#2AA8EE"/>
</svg>
