<svg width="1920" height="1080" viewBox="0 0 1920 1080" fill="none" xmlns="http://www.w3.org/2000/svg">
<g clip-path="url(#clip0_183_85)">
<rect width="1920" height="1080" fill="white"/>
<rect width="1920" height="1080" fill="url(#paint0_linear_183_85)"/>
<path d="M1920 648.159L1811.87 624.093C1703.73 600.927 1487.47 551.445 1271.2 588.106C1054.93 623.418 838.667 744.874 622.4 768.04C406.133 792.106 189.867 720.133 -26.4 744.199C-242.667 767.365 -458.933 888.82 -675.2 888.146C-891.467 888.82 -1107.73 767.365 -1215.87 708.212L-1324 648.159V1080H-1215.87C-1107.73 1080 -891.467 1080 -675.2 1080C-458.933 1080 -242.667 1080 -26.4 1080C189.867 1080 406.133 1080 622.4 1080C838.667 1080 1054.93 1080 1271.2 1080C1487.47 1080 1703.73 1080 1811.87 1080H1920V648.159Z" fill="url(#paint1_linear_183_85)"/>
<path d="M1920 824.4L1856 810.156C1792 796.444 1664 767.156 1536 788.856C1408 809.756 1280 881.644 1152 895.356C1024 909.6 896 867 768 881.244C640 894.956 512 966.844 384 966.444C256 966.844 128 894.956 63.9999 859.944L-5.72205e-05 824.4V1080H63.9999C128 1080 256 1080 384 1080C512 1080 640 1080 768 1080C896 1080 1024 1080 1152 1080C1280 1080 1408 1080 1536 1080C1664 1080 1792 1080 1856 1080H1920V824.4Z" fill="url(#paint2_linear_183_85)"/>
</g>
<defs>
<linearGradient id="paint0_linear_183_85" x1="960" y1="0" x2="960" y2="1080" gradientUnits="userSpaceOnUse">
<stop stop-color="#D9D9D9"/>
<stop offset="0.0001" stop-color="#0099FF" stop-opacity="0.3"/>
<stop offset="1" stop-color="#D9D9D9" stop-opacity="0"/>
</linearGradient>
<linearGradient id="paint1_linear_183_85" x1="298" y1="575" x2="298" y2="1080" gradientUnits="userSpaceOnUse">
<stop stop-color="#2AA8EE" stop-opacity="0"/>
<stop offset="1" stop-color="#2AA8EE" stop-opacity="0.5"/>
</linearGradient>
<linearGradient id="paint2_linear_183_85" x1="960" y1="781.098" x2="960" y2="1080" gradientUnits="userSpaceOnUse">
<stop stop-color="#2AA8EE" stop-opacity="0"/>
<stop offset="1" stop-color="#2AA8EE" stop-opacity="0.5"/>
</linearGradient>
<clipPath id="clip0_183_85">
<rect width="1920" height="1080" fill="white"/>
</clipPath>
</defs>
</svg>
