<svg width="1641" height="239" viewBox="0 0 1641 239" fill="none" xmlns="http://www.w3.org/2000/svg">
<path d="M297.8 62H342.5C356.9 62 368.15 65.1 376.25 71.3C384.35 77.5 388.4 86.65 388.4 98.75C388.4 110.85 384.35 119.8 376.25 125.6C368.25 131.4 357 134.3 342.5 134.3H332.75V162.95C332.75 164.05 332.35 165 331.55 165.8C330.75 166.6 329.8 167 328.7 167H297.8C296.7 167 295.75 166.6 294.95 165.8C294.15 165 293.75 164.05 293.75 162.95V66.05C293.75 64.95 294.15 64 294.95 63.2C295.75 62.4 296.7 62 297.8 62ZM332 89.9V106.55H342.5C344.3 106.55 345.9 105.9 347.3 104.6C348.7 103.2 349.4 101.25 349.4 98.75C349.4 96.25 348.85 94.15 347.75 92.45C346.65 90.75 344.9 89.9 342.5 89.9H332ZM479.538 136.85H434.838V137.6C434.838 143.7 436.788 146.75 440.688 146.75C441.788 146.75 443.138 145.95 444.738 144.35C446.338 142.75 448.088 141.95 449.988 141.95H478.338C480.538 141.95 481.638 143.05 481.638 145.25C481.638 150.15 477.938 155.25 470.538 160.55C463.238 165.85 453.288 168.5 440.688 168.5C428.188 168.5 417.938 165.25 409.938 158.75C402.038 152.15 398.088 143.1 398.088 131.6V124.4C398.088 113.5 402.138 104.65 410.238 97.85C418.338 90.95 428.938 87.5 442.038 87.5C455.238 87.5 465.438 91.35 472.638 99.05C479.938 106.75 483.588 116.5 483.588 128.3V132.8C483.588 133.9 483.188 134.85 482.388 135.65C481.588 136.45 480.638 136.85 479.538 136.85ZM446.838 117.5C446.838 111.5 444.838 108.5 440.838 108.5C436.838 108.5 434.838 111.5 434.838 117.5V118.1H446.838V117.5ZM494.035 144.65C494.035 131.15 504.985 122.5 526.885 118.7L542.785 116.15C542.785 113.15 542.535 111.15 542.035 110.15C541.535 109.05 540.335 108.5 538.435 108.5C536.635 108.5 534.835 109.3 533.035 110.9C531.235 112.5 529.535 113.3 527.935 113.3H502.435C500.235 113.3 499.135 112.25 499.135 110.15C499.135 107.95 499.885 105.65 501.385 103.25C502.985 100.75 505.235 98.3 508.135 95.9C511.135 93.5 515.285 91.5 520.585 89.9C525.985 88.3 531.985 87.5 538.585 87.5C551.985 87.5 562.035 90.3 568.735 95.9C575.435 101.5 578.785 109.5 578.785 119.9V162.95C578.785 164.05 578.385 165 577.585 165.8C576.785 166.6 575.835 167 574.735 167H548.485C547.385 167 546.435 166.6 545.635 165.8C544.835 165 544.435 164.05 544.435 162.95V158.75C539.735 165.25 532.885 168.5 523.885 168.5C514.885 168.5 507.635 166.25 502.135 161.75C496.735 157.15 494.035 151.45 494.035 144.65ZM533.485 146.3C539.985 146.3 543.235 142.4 543.235 134.6L534.385 136.55C529.985 137.55 527.785 139.4 527.785 142.1C527.785 143.3 528.285 144.3 529.285 145.1C530.285 145.9 531.685 146.3 533.485 146.3ZM590.715 129.65V122C590.715 110.8 593.715 102.25 599.715 96.35C605.715 90.45 613.365 87.5 622.665 87.5C631.965 87.5 639.315 90.9 644.715 97.7V93.05C644.715 91.95 645.115 91 645.915 90.2C646.715 89.4 647.665 89 648.765 89H675.015C676.115 89 677.065 89.4 677.865 90.2C678.665 91 679.065 91.95 679.065 93.05L679.215 164.45C679.215 176.45 675.315 185.35 667.515 191.15C659.715 197.05 649.465 200 636.765 200C628.865 200 621.815 198.9 615.615 196.7C609.415 194.6 604.765 192 601.665 188.9C595.365 182.7 592.215 177.45 592.215 173.15C592.215 172.05 592.615 171.1 593.415 170.3C594.215 169.5 595.165 169.1 596.265 169.1H625.515C627.315 169.1 628.765 170.2 629.865 172.4C631.065 174.7 633.115 175.85 636.015 175.85C640.315 175.85 642.465 173.15 642.465 167.75V157.1C637.565 161.4 630.615 163.55 621.615 163.55C612.715 163.55 605.315 160.85 599.415 155.45C593.615 150.05 590.715 141.45 590.715 129.65ZM634.965 137.45C639.665 137.45 642.165 134.95 642.465 129.95V121.85C642.165 116.85 639.665 114.35 634.965 114.35C629.965 114.35 627.465 117.25 627.465 123.05V128.75C627.465 134.55 629.965 137.45 634.965 137.45ZM773.386 136.85H728.686V137.6C728.686 143.7 730.636 146.75 734.536 146.75C735.636 146.75 736.986 145.95 738.586 144.35C740.186 142.75 741.936 141.95 743.836 141.95H772.186C774.386 141.95 775.486 143.05 775.486 145.25C775.486 150.15 771.786 155.25 764.386 160.55C757.086 165.85 747.136 168.5 734.536 168.5C722.036 168.5 711.786 165.25 703.786 158.75C695.886 152.15 691.936 143.1 691.936 131.6V124.4C691.936 113.5 695.986 104.65 704.086 97.85C712.186 90.95 722.786 87.5 735.886 87.5C749.086 87.5 759.286 91.35 766.486 99.05C773.786 106.75 777.436 116.5 777.436 128.3V132.8C777.436 133.9 777.036 134.85 776.236 135.65C775.436 136.45 774.486 136.85 773.386 136.85ZM740.686 117.5C740.686 111.5 738.686 108.5 734.686 108.5C730.686 108.5 728.686 111.5 728.686 117.5V118.1H740.686V117.5ZM796.433 62H841.133C855.533 62 866.783 65.1 874.883 71.3C882.983 77.5 887.033 86.65 887.033 98.75C887.033 110.85 882.983 119.8 874.883 125.6C866.883 131.4 855.633 134.3 841.133 134.3H831.383V162.95C831.383 164.05 830.983 165 830.183 165.8C829.383 166.6 828.433 167 827.333 167H796.433C795.333 167 794.383 166.6 793.583 165.8C792.783 165 792.383 164.05 792.383 162.95V66.05C792.383 64.95 792.783 64 793.583 63.2C794.383 62.4 795.333 62 796.433 62ZM830.633 89.9V106.55H841.133C842.933 106.55 844.533 105.9 845.933 104.6C847.333 103.2 848.033 101.25 848.033 98.75C848.033 96.25 847.483 94.15 846.383 92.45C845.283 90.75 843.533 89.9 841.133 89.9H830.633ZM896.721 144.65C896.721 131.15 907.671 122.5 929.571 118.7L945.471 116.15C945.471 113.15 945.221 111.15 944.721 110.15C944.221 109.05 943.021 108.5 941.121 108.5C939.321 108.5 937.521 109.3 935.721 110.9C933.921 112.5 932.221 113.3 930.621 113.3H905.121C902.921 113.3 901.821 112.25 901.821 110.15C901.821 107.95 902.571 105.65 904.071 103.25C905.671 100.75 907.921 98.3 910.821 95.9C913.821 93.5 917.971 91.5 923.271 89.9C928.671 88.3 934.671 87.5 941.271 87.5C954.671 87.5 964.721 90.3 971.421 95.9C978.121 101.5 981.471 109.5 981.471 119.9V162.95C981.471 164.05 981.071 165 980.271 165.8C979.471 166.6 978.521 167 977.421 167H951.171C950.071 167 949.121 166.6 948.321 165.8C947.521 165 947.121 164.05 947.121 162.95V158.75C942.421 165.25 935.571 168.5 926.571 168.5C917.571 168.5 910.321 166.25 904.821 161.75C899.421 157.15 896.721 151.45 896.721 144.65ZM936.171 146.3C942.671 146.3 945.921 142.4 945.921 134.6L937.071 136.55C932.671 137.55 930.471 139.4 930.471 142.1C930.471 143.3 930.971 144.3 931.971 145.1C932.971 145.9 934.371 146.3 936.171 146.3ZM994.15 89H1019.5C1021.8 89 1023.4 90.2 1024.3 92.6L1036.6 126.8L1049.35 92.6C1050.35 90.2 1052.05 89 1054.45 89H1079.5C1080.4 89 1081.2 89.35 1081.9 90.05C1082.6 90.65 1082.95 91.3 1082.95 92C1082.95 92.7 1082.9 93.25 1082.8 93.65L1040.5 191.9C1039.5 194.3 1037.75 195.5 1035.25 195.5H1010.65C1009.75 195.5 1008.95 195.2 1008.25 194.6C1007.65 194 1007.35 193.25 1007.35 192.35C1007.35 191.55 1007.4 191.05 1007.5 190.85L1019.5 162.05L990.55 93.65C990.45 93.35 990.4 93 990.4 92.6C990.8 90.2 992.05 89 994.15 89ZM1170.5 62H1203.05C1206.65 62 1208.9 63.65 1209.8 66.95L1243.25 162.65C1243.35 162.95 1243.4 163.45 1243.4 164.15C1243.4 164.75 1243.05 165.4 1242.35 166.1C1241.75 166.7 1241 167 1240.1 167H1212.35C1209.35 167 1207.4 165.75 1206.5 163.25L1202.9 153.35H1170.65L1167.05 163.25C1166.15 165.75 1164.2 167 1161.2 167H1133.45C1132.55 167 1131.75 166.7 1131.05 166.1C1130.45 165.4 1130.15 164.75 1130.15 164.15C1130.15 163.45 1130.2 162.95 1130.3 162.65L1163.75 66.95C1164.65 63.65 1166.9 62 1170.5 62ZM1178.3 124.1H1195.25L1186.7 96.2L1178.3 124.1ZM1250.92 133.85V122C1250.92 110.8 1253.92 102.25 1259.92 96.35C1265.92 90.45 1273.22 87.5 1281.82 87.5C1290.52 87.5 1297.47 89.85 1302.67 94.55V64.55C1302.67 63.45 1303.07 62.5 1303.87 61.7C1304.67 60.9 1305.62 60.5 1306.72 60.5H1334.47C1335.57 60.5 1336.52 60.9 1337.32 61.7C1338.12 62.5 1338.52 63.45 1338.52 64.55V162.95C1338.52 164.05 1338.12 165 1337.32 165.8C1336.52 166.6 1335.57 167 1334.47 167H1308.97C1307.87 167 1306.92 166.6 1306.12 165.8C1305.32 165 1304.92 164.05 1304.92 162.95V158.45C1299.72 165.15 1292.37 168.5 1282.87 168.5C1273.37 168.5 1265.67 165.7 1259.77 160.1C1253.87 154.4 1250.92 145.65 1250.92 133.85ZM1302.67 132.95V121.85C1302.37 116.85 1299.87 114.35 1295.17 114.35C1290.17 114.35 1287.67 117.25 1287.67 123.05V132.95C1287.67 138.75 1290.17 141.65 1295.17 141.65C1300.17 141.65 1302.67 138.75 1302.67 132.95ZM1440.96 114.35C1439.36 114.35 1437.96 114.95 1436.76 116.15C1435.66 117.35 1435.11 119.15 1435.11 121.55V162.95C1435.11 164.05 1434.71 165 1433.91 165.8C1433.11 166.6 1432.16 167 1431.06 167H1404.66C1403.56 167 1402.61 166.6 1401.81 165.8C1401.01 165 1400.61 164.05 1400.61 162.95V122.6C1400.61 117.1 1398.61 114.35 1394.61 114.35C1392.91 114.35 1391.46 115 1390.26 116.3C1389.16 117.5 1388.61 119.2 1388.61 121.4V162.95C1388.61 164.05 1388.21 165 1387.41 165.8C1386.61 166.6 1385.66 167 1384.56 167H1357.56C1356.46 167 1355.51 166.6 1354.71 165.8C1353.91 165 1353.51 164.05 1353.51 162.95V93.05C1353.51 91.95 1353.91 91 1354.71 90.2C1355.51 89.4 1356.46 89 1357.56 89H1382.31C1383.41 89 1384.36 89.4 1385.16 90.2C1385.96 91 1386.36 91.95 1386.36 93.05V98C1388.36 95.4 1391.21 93.05 1394.91 90.95C1399.01 88.65 1403.61 87.5 1408.71 87.5C1419.71 87.5 1427.11 91.6 1430.91 99.8C1433.31 96.3 1436.61 93.4 1440.81 91.1C1445.01 88.7 1449.36 87.5 1453.86 87.5C1461.96 87.5 1468.56 90.35 1473.66 96.05C1478.86 101.75 1481.46 110.25 1481.46 121.55V162.95C1481.46 164.05 1481.06 165 1480.26 165.8C1479.46 166.6 1478.51 167 1477.41 167H1451.01C1449.91 167 1448.96 166.6 1448.16 165.8C1447.36 165 1446.96 164.05 1446.96 162.95V122.6C1446.96 117.1 1444.96 114.35 1440.96 114.35ZM1526.65 167H1499.8C1498.7 167 1497.75 166.6 1496.95 165.8C1496.15 165 1495.75 164.05 1495.75 162.95V93.05C1495.75 91.95 1496.15 91 1496.95 90.2C1497.75 89.4 1498.7 89 1499.8 89H1526.65C1527.75 89 1528.7 89.4 1529.5 90.2C1530.3 91 1530.7 91.95 1530.7 93.05V162.95C1530.7 164.05 1530.3 165 1529.5 165.8C1528.7 166.6 1527.75 167 1526.65 167ZM1529.95 60.05V78.2C1529.95 79.3 1529.55 80.25 1528.75 81.05C1527.95 81.85 1527 82.25 1525.9 82.25H1500.55C1499.45 82.25 1498.5 81.85 1497.7 81.05C1496.9 80.25 1496.5 79.3 1496.5 78.2V60.05C1496.5 58.95 1496.9 58 1497.7 57.2C1498.5 56.4 1499.45 56 1500.55 56H1525.9C1527 56 1527.95 56.4 1528.75 57.2C1529.55 58 1529.95 58.95 1529.95 60.05ZM1634.05 121.55V162.95C1634.05 164.05 1633.65 165 1632.85 165.8C1632.05 166.6 1631.1 167 1630 167H1601.35C1600.25 167 1599.3 166.6 1598.5 165.8C1597.7 165 1597.3 164.05 1597.3 162.95V122.6C1597.3 117.1 1594.8 114.35 1589.8 114.35C1584.8 114.35 1582.3 117.1 1582.3 122.6V162.95C1582.3 164.05 1581.9 165 1581.1 165.8C1580.3 166.6 1579.35 167 1578.25 167H1549.75C1548.65 167 1547.7 166.6 1546.9 165.8C1546.1 165 1545.7 164.05 1545.7 162.95V93.05C1545.7 91.95 1546.1 91 1546.9 90.2C1547.7 89.4 1548.65 89 1549.75 89H1576C1577.1 89 1578.05 89.4 1578.85 90.2C1579.65 91 1580.05 91.95 1580.05 93.05V98C1582.65 94.9 1586.15 92.4 1590.55 90.5C1595.05 88.5 1599.85 87.5 1604.95 87.5C1613.15 87.5 1620.05 90.4 1625.65 96.2C1631.25 101.9 1634.05 110.35 1634.05 121.55Z" fill="#4B5C76"/>
<path d="M60.2683 46.7684C60.2683 45.1666 61.5421 43.8681 63.1134 43.8681H87.9063C89.4776 43.8681 90.7514 45.1666 90.7514 46.7684C90.7514 48.3702 89.4776 49.6687 87.9063 49.6687H63.1134C61.5421 49.6687 60.2683 48.3702 60.2683 46.7684Z" fill="#2AA8EE"/>
<path fill-rule="evenodd" clip-rule="evenodd" d="M42.254 16.4518C42.254 7.36573 49.4796 0 58.3927 0H142.901C151.814 0 159.039 7.36573 159.039 16.4518V68.4994C159.039 77.5855 151.814 84.9512 142.901 84.9512H121.697L121.847 84.9885L100.757 106.488H190.73C196.402 106.488 201 111.175 201 116.957V228.531C201 234.313 196.402 239 190.73 239H175.472C169.8 239 165.201 234.313 165.201 228.531V209.985H35.7985L35.7985 228.531C35.7985 234.313 31.2005 239 25.5285 239H10.2701C4.59807 239 1.23505e-06 234.313 1.48298e-06 228.531L0 116.957C0 111.175 4.59807 106.488 10.2701 106.488H100.61L79.5197 84.9885L79.6697 84.9512H58.3927C49.4796 84.9512 42.254 77.5855 42.254 68.4994V16.4518ZM61.9139 11.965C57.8624 11.965 54.5781 15.313 54.5781 19.4431V65.3929C54.5781 69.523 57.8624 72.871 61.9139 72.871H139.504C143.556 72.871 146.84 69.523 146.84 65.3929L146.84 39.3105H54.5781V25.6377H146.84L146.84 19.4431C146.84 15.313 143.556 11.965 139.504 11.965H61.9139ZM165.201 195.627V142.981H35.7985V195.627H165.201Z" fill="#2AA8EE"/>
</svg>
