<svg width="201" height="239" viewBox="0 0 201 239" fill="none" xmlns="http://www.w3.org/2000/svg">
<path d="M60.2683 46.7684C60.2683 45.1666 61.5421 43.8681 63.1134 43.8681H87.9063C89.4776 43.8681 90.7514 45.1666 90.7514 46.7684C90.7514 48.3702 89.4776 49.6687 87.9063 49.6687H63.1134C61.5421 49.6687 60.2683 48.3702 60.2683 46.7684Z" fill="#2AA8EE"/>
<path fill-rule="evenodd" clip-rule="evenodd" d="M42.254 16.4518C42.254 7.36573 49.4796 0 58.3927 0H142.901C151.814 0 159.039 7.36573 159.039 16.4518V68.4994C159.039 77.5855 151.814 84.9512 142.901 84.9512H121.697L121.847 84.9885L100.757 106.488H190.73C196.402 106.488 201 111.175 201 116.957V228.531C201 234.313 196.402 239 190.73 239H175.472C169.8 239 165.201 234.313 165.201 228.531V209.985H35.7985L35.7985 228.531C35.7985 234.313 31.2005 239 25.5285 239H10.2701C4.59807 239 1.23505e-06 234.313 1.48298e-06 228.531L0 116.957C0 111.175 4.59807 106.488 10.2701 106.488H100.61L79.5197 84.9885L79.6697 84.9512H58.3927C49.4796 84.9512 42.254 77.5855 42.254 68.4994V16.4518ZM61.9139 11.965C57.8624 11.965 54.5781 15.313 54.5781 19.4431V65.3929C54.5781 69.523 57.8624 72.871 61.9139 72.871H139.504C143.556 72.871 146.84 69.523 146.84 65.3929L146.84 39.3105H54.5781V25.6377H146.84L146.84 19.4431C146.84 15.313 143.556 11.965 139.504 11.965H61.9139ZM165.201 195.627V142.981H35.7985V195.627H165.201Z" fill="#2AA8EE"/>
</svg>
