<svg width="1527" height="1812" viewBox="0 0 1527 1812" fill="none" xmlns="http://www.w3.org/2000/svg">
<path d="M457.859 354.579C457.859 342.435 467.536 332.59 479.474 332.59H667.826C679.763 332.59 689.44 342.435 689.44 354.579C689.44 366.723 679.763 376.568 667.826 376.568H479.473C467.536 376.568 457.859 366.723 457.859 354.579Z" fill="#2AA8EE"/>
<path fill-rule="evenodd" clip-rule="evenodd" d="M321.004 124.731C321.004 55.8439 375.897 0 443.61 0H1085.62C1153.33 0 1208.22 55.8439 1208.22 124.731V519.334C1208.22 588.221 1153.33 644.065 1085.62 644.065H924.535L925.674 644.348L765.45 807.349H1448.98C1492.07 807.349 1527 842.886 1527 886.723V1732.63C1527 1776.46 1492.07 1812 1448.98 1812H1333.06C1289.97 1812 1255.04 1776.46 1255.04 1732.63V1592.02H271.962L271.962 1732.63C271.962 1776.46 237.03 1812 193.94 1812H78.0219C34.9316 1812 9.38269e-06 1776.46 1.12662e-05 1732.63L0 886.723C0 842.886 34.9316 807.349 78.0219 807.349H764.336L604.113 644.348L605.252 644.065H443.61C375.897 644.065 321.004 588.221 321.004 519.334V124.731ZM470.361 90.7134C439.582 90.7134 414.631 116.097 414.631 147.409V495.782C414.631 527.095 439.582 552.478 470.361 552.478H1059.82C1090.6 552.478 1115.55 527.095 1115.55 495.782L1115.55 298.036H414.631V194.375H1115.55L1115.55 147.409C1115.55 116.097 1090.6 90.7134 1059.82 90.7134H470.361ZM1255.04 1483.16V1084.03H271.962V1483.16H1255.04Z" fill="#2AA8EE"/>
</svg>
